<svg xmlns="http://www.w3.org/2000/svg" width="1600" height="900" viewBox="0 0 1600 900" preserveAspectRatio="xMidYMid slice">
<defs><filter id="b" x="-40%" y="-40%" width="180%" height="180%"><feGaussianBlur stdDeviation="60"/></filter></defs>
<defs>
  <linearGradient id="sky" x1="0" y1="0" x2="0" y2="1">
    <stop offset="0" stop-color="#fde6d4"/><stop offset="1" stop-color="#f3c9a4"/>
  </linearGradient>
  <linearGradient id="shade" x1="0" y1="0" x2="0" y2="1">
    <stop offset="0" stop-color="#ffffff" stop-opacity="0.18"/><stop offset="1" stop-color="#000000" stop-opacity="0.06"/>
  </linearGradient>
</defs>
<rect width="1600" height="900" fill="url(#sky)"/>
<circle cx="1180" cy="240" r="150" fill="rgba(255,244,214,0.95)" filter="url(#b)" opacity="0.7"/>
<circle cx="1180" cy="240" r="52" fill="#ffffff" opacity="0.85"/>
<path d="M0 560 L260 320 L520 560 L800 380 L1100 600 L1360 430 L1600 560 L1600 900 L0 900 Z" fill="#f2bd8f"/>
<path d="M0 660 L300 440 L620 660 L980 500 L1300 680 L1600 560 L1600 900 L0 900 Z" fill="#df9a68"/>
<path d="M0 760 L420 560 L820 770 L1220 620 L1600 780 L1600 900 L0 900 Z" fill="#c47f52"/>
<ellipse cx="800" cy="640" rx="900" ry="90" fill="#ffffff" opacity="0.35" filter="url(#b)"/>
<rect width="1600" height="900" fill="url(#shade)"/></svg>