<svg xmlns="http://www.w3.org/2000/svg" width="1600" height="900" viewBox="0 0 1600 900" preserveAspectRatio="xMidYMid slice">
<defs><filter id="b" x="-40%" y="-40%" width="180%" height="180%"><feGaussianBlur stdDeviation="60"/></filter></defs>
<defs>
  <linearGradient id="sky" x1="0" y1="0" x2="0" y2="1">
    <stop offset="0" stop-color="#fde6d4"/><stop offset="1" stop-color="#f3c9a4"/>
  </linearGradient>
  <linearGradient id="shade" x1="0" y1="0" x2="0" y2="1">
    <stop offset="0" stop-color="#ffffff" stop-opacity="0.16"/><stop offset="1" stop-color="#000000" stop-opacity="0.05"/>
  </linearGradient>
</defs>
<rect width="1600" height="900" fill="url(#sky)"/>
<circle cx="420" cy="280" r="170" fill="rgba(255,244,214,0.95)" filter="url(#b)" opacity="0.75"/>
<circle cx="420" cy="280" r="58" fill="#ffffff" opacity="0.9"/>
<path d="M0 520 Q200 440 400 520 T800 520 T1200 520 T1600 520 L1600 900 L0 900 Z" fill="#f2bd8f"/>
<path d="M0 640 Q200 560 400 640 T800 640 T1200 640 T1600 640 L1600 900 L0 900 Z" fill="#df9a68"/>
<path d="M0 760 Q200 680 400 760 T800 760 T1200 760 T1600 760 L1600 900 L0 900 Z" fill="#c47f52"/>
<ellipse cx="800" cy="640" rx="760" ry="40" fill="#ffffff" opacity="0.2" filter="url(#b)"/>
<rect width="1600" height="900" fill="url(#shade)"/></svg>